<?xml version="1.0" encoding="UTF-8" standalone="no"?>
<!-- Created with Inkscape (http://www.inkscape.org/) -->

<svg
   xmlns:dc="http://purl.org/dc/elements/1.1/"
   xmlns:cc="http://creativecommons.org/ns#"
   xmlns:rdf="http://www.w3.org/1999/02/22-rdf-syntax-ns#"
   xmlns:svg="http://www.w3.org/2000/svg"
   xmlns="http://www.w3.org/2000/svg"
   xmlns:sodipodi="http://sodipodi.sourceforge.net/DTD/sodipodi-0.dtd"
   xmlns:inkscape="http://www.inkscape.org/namespaces/inkscape"
   width="27.093334mm"
   height="27.09602mm"
   viewBox="0 0 96.000003 96.009518"
   id="svg4891"
   version="1.1"
   inkscape:version="0.91 r13725"
   sodipodi:docname="bb-8.svg">
  <defs
     id="defs4893" />
  <sodipodi:namedview
     id="base"
     pagecolor="#ffffff"
     bordercolor="#666666"
     borderopacity="1.0"
     inkscape:pageopacity="0.0"
     inkscape:pageshadow="2"
     inkscape:zoom="2.8"
     inkscape:cx="-355.66934"
     inkscape:cy="258.60916"
     inkscape:document-units="px"
     inkscape:current-layer="layer1"
     showgrid="false"
     fit-margin-top="0"
     fit-margin-left="0"
     fit-margin-right="0"
     fit-margin-bottom="0"
     inkscape:window-width="3840"
     inkscape:window-height="2050"
     inkscape:window-x="0"
     inkscape:window-y="54"
     inkscape:window-maximized="1" />
  <metadata
     id="metadata4896">
    <rdf:RDF>
      <cc:Work
         rdf:about="">
        <dc:format>image/svg+xml</dc:format>
        <dc:type
           rdf:resource="http://purl.org/dc/dcmitype/StillImage" />
        <dc:title />
      </cc:Work>
    </rdf:RDF>
  </metadata>
  <g
     inkscape:label="Layer 1"
     inkscape:groupmode="layer"
     id="layer1"
     transform="translate(-692,-1164.3574)">
    <g
       transform="translate(359.99216,832.36697)"
       id="g989"
       style="stroke:none;stroke-opacity:1;fill:#000000;fill-opacity:1">
      <g
         id="g991"
         style="stroke:none;stroke-opacity:1;fill:#000000;fill-opacity:1">
        <g
           id="g993"
           style="stroke:none;stroke-opacity:1;fill:#000000;fill-opacity:1">
          <path
             style="fill:#000000;stroke:none;stroke-opacity:1;fill-opacity:1"
             inkscape:connector-curvature="0"
             d="m 343.68265,376.0459 c -0.69141,0 -1.36328,-0.3584 -1.73438,-1 -3.83203,-6.6377 -4.85059,-14.37012 -2.86621,-21.77344 1.9834,-7.40332 6.73145,-13.5918 13.36914,-17.42383 6.63672,-3.83301 14.36914,-4.85352 21.77344,-2.86621 7.40332,1.9834 13.5918,6.73145 17.42383,13.36914 0.55176,0.95703 0.22461,2.17969 -0.73242,2.73242 -0.96094,0.55176 -2.17969,0.22266 -2.73242,-0.73242 -3.29785,-5.71289 -8.62305,-9.79883 -14.99414,-11.50586 -6.36914,-1.70801 -13.02539,-0.83203 -18.73828,2.46777 -5.71289,3.29785 -9.79883,8.62305 -11.50586,14.99414 -1.70703,6.37109 -0.83105,13.02637 2.46777,18.73828 0.55176,0.95605 0.22461,2.17969 -0.73242,2.73242 -0.31446,0.18165 -0.65919,0.26759 -0.99805,0.26759 z"
             id="path995" />
        </g>
      </g>
      <g
         id="g997"
         style="stroke:none;stroke-opacity:1;fill:#000000;fill-opacity:1">
        <g
           id="g999"
           style="stroke:none;stroke-opacity:1;fill:#000000;fill-opacity:1">
          <path
             style="fill:#000000;stroke:none;stroke-opacity:1;fill-opacity:1"
             inkscape:connector-curvature="0"
             d="m 350.97366,378 c -0.17383,0 -0.34766,-0.0225 -0.51758,-0.0684 l -7.29297,-1.9541 c -1.06738,-0.28613 -1.7002,-1.38281 -1.41406,-2.44922 0.28516,-1.06641 1.37988,-1.70215 2.44922,-1.41406 l 6.49316,1.73926 35.55273,-20.52637 1.74023,-6.49316 c 0.28613,-1.06641 1.37793,-1.70312 2.44922,-1.41406 1.06738,0.28613 1.7002,1.38281 1.41406,2.44922 l -1.9541,7.29297 c -0.13672,0.5127 -0.47266,0.94922 -0.93164,1.21484 l -36.98828,21.35547 C 351.66702,377.90918 351.32132,378 350.97366,378 Z"
             id="path1001" />
        </g>
      </g>
      <g
         id="g1003"
         style="stroke:none;stroke-opacity:1;fill:#000000;fill-opacity:1">
        <g
           id="g1005"
           style="stroke:none;stroke-opacity:1;fill:#000000;fill-opacity:1">
          <path
             style="fill:#000000;stroke:none;stroke-opacity:1;fill-opacity:1"
             inkscape:connector-curvature="0"
             d="m 362.02347,362.00293 c -0.86816,0 -1.74219,-0.11426 -2.60352,-0.34473 -2.58008,-0.69141 -4.73633,-2.34668 -6.07129,-4.65918 -1.33496,-2.3125 -1.69043,-5.00684 -0.99902,-7.58691 0.69141,-2.58007 2.34668,-4.73633 4.65918,-6.07129 2.31152,-1.33594 5.00586,-1.69043 7.58691,-0.99902 2.58008,0.69141 4.73633,2.3457 6.07129,4.65918 l 0,0 c 1.33496,2.3125 1.69043,5.00684 0.99902,7.58691 -0.69141,2.58007 -2.34668,4.73633 -4.65918,6.07129 -1.54003,0.88965 -3.25097,1.34375 -4.98339,1.34375 z m -0.0254,-16.00391 c -1.03906,0 -2.06445,0.27246 -2.98926,0.80664 -1.3877,0.80078 -2.38086,2.09375 -2.79492,3.6416 -0.41504,1.54785 -0.20215,3.16406 0.59961,4.55176 0.80078,1.3877 2.09375,2.38086 3.6416,2.79492 1.5459,0.41504 3.16309,0.20215 4.55176,-0.59961 1.3877,-0.80078 2.38086,-2.09375 2.79492,-3.6416 0.41504,-1.54785 0.20215,-3.16406 -0.59961,-4.55176 l 0,0 c -0.80078,-1.3877 -2.09375,-2.38086 -3.6416,-2.79492 -0.5166,-0.13867 -1.04102,-0.20703 -1.5625,-0.20703 z"
             id="path1007" />
        </g>
      </g>
      <g
         id="g1009"
         style="stroke:none;stroke-opacity:1;fill:#000000;fill-opacity:1">
        <g
           id="g1011"
           style="stroke:none;stroke-opacity:1;fill:#000000;fill-opacity:1">
          <g
             id="g1013"
             style="stroke:none;stroke-opacity:1;fill:#000000;fill-opacity:1">
            <path
               style="fill:#000000;stroke:none;stroke-opacity:1;fill-opacity:1"
               inkscape:connector-curvature="0"
               d="m 379.01273,351.99805 c -1.03809,0 -2.04785,-0.53711 -2.60254,-1.49805 -0.82617,-1.43457 -0.33301,-3.27148 1.09766,-4.09766 1.43457,-0.82422 3.27148,-0.33398 4.09766,1.09766 9.8e-4,9.8e-4 0.002,0.002 0.002,0.002 0.82422,1.43262 0.33105,3.26953 -1.09961,4.0957 -0.47169,0.27149 -0.98634,0.4004 -1.49512,0.4004 z m 0.86132,-3.49805 -1.73145,1 c 0.27539,0.47754 0.8877,0.6416 1.36328,0.36719 0.47852,-0.27637 0.64355,-0.88867 0.36914,-1.36523 10e-6,-10e-6 -9.7e-4,-9.8e-4 -9.7e-4,-0.002 z m -0.86816,-0.5 c -0.16895,0 -0.33984,0.043 -0.49609,0.13281 -0.47852,0.27637 -0.64355,0.88867 -0.36914,1.36523 l 1.7334,-0.99805 C 379.68753,348.17969 379.35062,348 379.00589,348 Z"
               id="path1015" />
          </g>
        </g>
      </g>
    </g>
    <g
       transform="translate(359.99216,832.36697)"
       id="g1017"
       style="stroke:none;stroke-opacity:1;fill:#000000;fill-opacity:1">
      <g
         id="g1019"
         style="stroke:none;stroke-opacity:1;fill:#000000;fill-opacity:1">
        <g
           id="g1021"
           style="stroke:none;stroke-opacity:1;fill:#000000;fill-opacity:1">
          <path
             style="fill:#000000;stroke:none;stroke-opacity:1;fill-opacity:1"
             inkscape:connector-curvature="0"
             d="m 393.00784,386 c -1.6543,0 -3,-1.3457 -3,-3 0,-1.6543 1.3457,-3 3,-3 1.6543,0 3,1.3457 3,3 0,1.6543 -1.3457,3 -3,3 z m 0,-4 c -0.55176,0 -1,0.44824 -1,1 0,0.55176 0.44824,1 1,1 0.55176,0 1,-0.44824 1,-1 0,-0.55176 -0.44824,-1 -1,-1 z"
             id="path1023" />
        </g>
      </g>
    </g>
    <g
       transform="translate(359.99216,832.36697)"
       id="g1025"
       style="stroke:none;stroke-opacity:1;fill:#000000;fill-opacity:1">
      <g
         id="g1027"
         style="stroke:none;stroke-opacity:1;fill:#000000;fill-opacity:1">
        <g
           id="g1029"
           style="stroke:none;stroke-opacity:1;fill:#000000;fill-opacity:1">
          <path
             style="fill:#000000;stroke:none;stroke-opacity:1;fill-opacity:1"
             inkscape:connector-curvature="0"
             d="m 366.00784,409 c -1.6543,0 -3,-1.3457 -3,-3 0,-1.6543 1.3457,-3 3,-3 1.6543,0 3,1.3457 3,3 0,1.6543 -1.3457,3 -3,3 z m 0,-4 c -0.55176,0 -1,0.44824 -1,1 0,0.55176 0.44824,1 1,1 0.55176,0 1,-0.44824 1,-1 0,-0.55176 -0.44824,-1 -1,-1 z"
             id="path1031" />
        </g>
      </g>
    </g>
    <g
       transform="translate(359.99216,832.36697)"
       id="g1033"
       style="stroke:none;stroke-opacity:1;fill:#000000;fill-opacity:1">
      <g
         id="g1035"
         style="stroke:none;stroke-opacity:1;fill:#000000;fill-opacity:1">
        <path
           style="fill:#000000;stroke:none;stroke-opacity:1;fill-opacity:1"
           inkscape:connector-curvature="0"
           d="m 384.00784,428 c -20.40234,0 -37,-16.59766 -37,-37 0,-5.82715 1.25391,-12.00879 3.35449,-16.53613 0.46582,-1.00293 1.6543,-1.43652 2.65625,-0.97266 1.00195,0.46484 1.4375,1.6543 0.97266,2.65625 -1.86816,4.02637 -2.9834,9.57812 -2.9834,14.85254 0,18.19629 14.80371,33 33,33 18.19629,0 33,-14.80371 33,-33 0,-17.65527 -13.80176,-32.13379 -31.4209,-32.96289 -1.10352,-0.0518 -1.95605,-0.98828 -1.9043,-2.0918 0.0527,-1.10352 1.00879,-1.92578 2.0918,-1.9043 19.75684,0.92969 35.2334,17.16406 35.2334,36.95898 0,20.40235 -16.59765,37.00001 -37,37.00001 z"
           id="path1037" />
      </g>
    </g>
    <g
       transform="translate(359.99216,832.36697)"
       id="g1039"
       style="stroke:none;stroke-opacity:1;fill:#000000;fill-opacity:1">
      <g
         id="g1041"
         style="stroke:none;stroke-opacity:1;fill:#000000;fill-opacity:1">
        <path
           style="fill:#000000;stroke:none;stroke-opacity:1;fill-opacity:1"
           inkscape:connector-curvature="0"
           d="m 418.77933,389.01562 c -0.3291,0 -0.66309,-0.0811 -0.9707,-0.25293 -13.02051,-7.24805 -23.42285,-18.12012 -30.08203,-31.43848 -0.49414,-0.98828 -0.0937,-2.18945 0.89453,-2.68359 0.99023,-0.49609 2.19043,-0.0937 2.68359,0.89453 6.29688,12.5957 16.13477,22.87793 28.44922,29.7334 0.96484,0.53711 1.3125,1.75488 0.77441,2.71973 -0.36523,0.65723 -1.04687,1.02734 -1.74902,1.02734 z"
           id="path1043" />
      </g>
    </g>
    <g
       transform="translate(359.99216,832.36697)"
       id="g1045"
       style="stroke:none;stroke-opacity:1;fill:#000000;fill-opacity:1">
      <g
         id="g1047"
         style="stroke:none;stroke-opacity:1;fill:#000000;fill-opacity:1">
        <path
           style="fill:#000000;stroke:none;stroke-opacity:1;fill-opacity:1"
           inkscape:connector-curvature="0"
           d="m 381.89066,427.93848 c -0.30957,0 -0.625,-0.0723 -0.91895,-0.22461 -3.35449,-1.74121 -5.78906,-4.35645 -7.04102,-7.56348 -1.38965,-3.55957 -1.21777,-7.49805 0.49707,-11.3916 2.4502,-5.56055 7.67188,-10.22363 14.32715,-12.79492 11.61914,-4.49023 23.87988,-0.95117 27.33008,7.88574 0.41699,1.06738 0.69629,2.18848 0.8291,3.33301 0.12793,1.09668 -0.65723,2.08984 -1.75488,2.21777 -1.08301,0.13086 -2.09082,-0.65625 -2.21777,-1.75488 -0.0937,-0.80371 -0.29004,-1.5918 -0.58301,-2.34082 -2.65039,-6.79004 -12.59375,-9.30371 -22.16211,-5.61035 -5.58691,2.15918 -10.11328,6.15039 -12.10742,10.67676 -1.27734,2.89941 -1.42676,5.77734 -0.43164,8.32422 0.89355,2.29004 2.67676,4.18066 5.15625,5.46777 0.98047,0.50879 1.36328,1.7168 0.85449,2.69629 -0.35645,0.68652 -1.05371,1.0791 -1.77734,1.0791 z"
           id="path1049" />
      </g>
    </g>
    <g
       transform="translate(359.99216,832.36697)"
       id="g1051"
       style="stroke:none;stroke-opacity:1;fill:#000000;fill-opacity:1">
      <g
         id="g1053"
         style="stroke:none;stroke-opacity:1;fill:#000000;fill-opacity:1">
        <path
           style="fill:#000000;stroke:none;stroke-opacity:1;fill-opacity:1"
           inkscape:connector-curvature="0"
           d="m 358.00784,399 c -3.28418,0 -6.47852,-0.62793 -9.49414,-1.86719 -1.02148,-0.41895 -1.50977,-1.58789 -1.08984,-2.60938 0.41895,-1.02148 1.58887,-1.5127 2.60938,-1.08984 2.53124,1.03907 5.21386,1.56641 7.9746,1.56641 11.5791,0 21,-9.4209 21,-21 0,-4.26855 -1.27246,-8.37598 -3.67969,-11.87891 -0.625,-0.91016 -0.39453,-2.15527 0.51562,-2.78125 0.91016,-0.62402 2.15625,-0.39453 2.78125,0.51562 2.86719,4.17188 4.38281,9.06348 4.38281,14.14453 C 383.00784,387.78516 371.793,399 358.00784,399 Z"
           id="path1055" />
      </g>
    </g>
    <g
       transform="translate(359.99216,832.36697)"
       id="g1057"
       style="stroke:none;stroke-opacity:1;fill:#000000;fill-opacity:1">
      <g
         id="g1059"
         style="stroke:none;stroke-opacity:1;fill:#000000;fill-opacity:1">
        <path
           style="fill:#000000;stroke:none;stroke-opacity:1;fill-opacity:1"
           inkscape:connector-curvature="0"
           d="m 382.10843,404.09473 c -0.55469,0 -1.10645,-0.22949 -1.50195,-0.67773 l -9.26562,-10.51758 c -0.72949,-0.8291 -0.65039,-2.09277 0.17871,-2.82324 0.82812,-0.73047 2.0918,-0.64941 2.82324,0.17871 l 9.26562,10.51758 c 0.72949,0.8291 0.65039,2.09277 -0.17871,2.82324 -0.37988,0.33495 -0.85156,0.49902 -1.32129,0.49902 z"
           id="path1061" />
      </g>
    </g>
    <g
       transform="translate(359.99216,832.36697)"
       id="g1063"
       style="stroke:none;stroke-opacity:1;fill:#000000;fill-opacity:1">
      <g
         id="g1065"
         style="stroke:none;stroke-opacity:1;fill:#000000;fill-opacity:1">
        <path
           style="fill:#000000;stroke:none;stroke-opacity:1;fill-opacity:1"
           inkscape:connector-curvature="0"
           d="m 408.13382,400.06738 c -0.14941,0 -0.30176,-0.0166 -0.4541,-0.0518 -1.0752,-0.24902 -1.74609,-1.32422 -1.49609,-2.40039 l 3.60156,-15.53418 c 0.24902,-1.07617 1.32129,-1.74609 2.40039,-1.49609 1.0752,0.24902 1.74609,1.32422 1.49609,2.40039 l -3.60156,15.53418 c -0.21387,0.92383 -1.03711,1.54785 -1.94629,1.54785 z"
           id="path1067" />
      </g>
    </g>
    <g
       transform="translate(359.99216,832.36697)"
       id="g1069"
       style="stroke:none;stroke-opacity:1;fill:#000000;fill-opacity:1">
      <g
         id="g1071"
         style="stroke:none;stroke-opacity:1;fill:#000000;fill-opacity:1">
        <path
           style="fill:#000000;stroke:none;stroke-opacity:1;fill-opacity:1"
           inkscape:connector-curvature="0"
           d="m 379.40921,367.56348 c -0.93848,0 -1.77539,-0.66211 -1.96094,-1.61816 -0.21094,-1.08398 0.49609,-2.13379 1.58105,-2.34473 l 13.7627,-2.67969 c 1.08203,-0.21387 2.13379,0.49512 2.34473,1.58105 0.21094,1.08398 -0.49609,2.13379 -1.58105,2.34473 l -13.7627,2.67969 c -0.12891,0.0254 -0.25684,0.0371 -0.38379,0.0371 z"
           id="path1073" />
      </g>
    </g>
    <g
       transform="translate(359.99216,832.36697)"
       id="g1093"
       style="stroke:none;stroke-opacity:1;fill:#000000;fill-opacity:1">
      <g
         id="g1095"
         style="stroke:none;stroke-opacity:1;fill:#000000;fill-opacity:1">
        <path
           style="fill:#000000;stroke:none;stroke-opacity:1;fill-opacity:1"
           inkscape:connector-curvature="0"
           d="m 360.34085,385.33301 c -5.48438,0 -10.0459,-4.10938 -10.60938,-9.55859 -0.11328,-1.09863 0.68457,-2.08203 1.7832,-2.19531 1.11523,-0.125 2.08203,0.68555 2.19531,1.7832 0.35254,3.4043 3.20312,5.9707 6.63086,5.9707 3.67578,0 6.66699,-2.99023 6.66699,-6.66602 0,-2.12598 -1.02832,-4.14355 -2.75098,-5.39648 -0.89258,-0.64941 -1.09082,-1.90039 -0.44043,-2.79395 0.64844,-0.89258 1.89941,-1.09082 2.79395,-0.44043 2.75293,2.00195 4.39746,5.22852 4.39746,8.63086 10e-6,5.88086 -4.78514,10.66602 -10.66698,10.66602 z"
           id="path1097" />
      </g>
    </g>
    <g
       transform="translate(359.99216,832.36697)"
       id="g1099"
       style="stroke:none;stroke-opacity:1;fill:#000000;fill-opacity:1">
      <g
         id="g1101"
         style="stroke:none;stroke-opacity:1;fill:#000000;fill-opacity:1">
        <path
           style="fill:#000000;stroke:none;stroke-opacity:1;fill-opacity:1"
           inkscape:connector-curvature="0"
           d="m 394.43362,423.97168 c -1.85254,0 -3.60059,-0.47656 -5.04102,-1.40625 -1.80664,-1.16602 -2.97754,-2.95605 -3.2959,-5.04102 -0.71777,-4.68652 2.95508,-9.54395 8.36133,-11.05762 2.9541,-0.82617 5.93066,-0.47461 8.16504,0.96777 1.80664,1.16602 2.97754,2.95605 3.2959,5.04004 l 0,0 c 0.71777,4.6875 -2.95508,9.54492 -8.36133,11.05859 -1.0498,0.29396 -2.10253,0.43849 -3.12402,0.43849 z m 3.15918,-13.94629 c -0.66016,0 -1.35449,0.0967 -2.05664,0.29297 -3.37695,0.94629 -5.88867,3.96875 -5.48633,6.60156 0.18359,1.20117 0.92383,1.90527 1.51172,2.28516 1.27344,0.82129 3.06836,0.99414 4.91797,0.47656 3.37695,-0.94629 5.88867,-3.96875 5.48633,-6.60156 0,0 0,0 0,-9.8e-4 -0.18359,-1.2002 -0.92383,-1.9043 -1.51172,-2.28418 -0.79004,-0.50976 -1.78125,-0.76953 -2.86133,-0.76953 z"
           id="path1103" />
      </g>
    </g>
  </g>
</svg>
